HIERARCHY
ROOT Hips
{
	OFFSET -3.958830 18.904000 13.208200
	CHANNELS 6 Xposition Yposition Zposition Zrotation Yrotation Xrotation 
	JOINT LHipJoint
	{
		OFFSET 0.000000 0.000000 0.000000
		CHANNELS 3 Zrotation Yrotation Xrotation
		JOINT LeftUpLeg
		{
			OFFSET 1.800000 -1.400000 0.085000
			CHANNELS 3 Zrotation Yrotation Xrotation
			JOINT LeftLeg
			{
				OFFSET 2.215000 -6.000000 0.000000
				CHANNELS 3 Zrotation Yrotation Xrotation
				JOINT LeftFoot
				{
					OFFSET 2.500000 -6.900000 0.000000
					CHANNELS 3 Zrotation Yrotation Xrotation
					JOINT LeftToeBase
					{
						OFFSET 0.200000 -0.500000 1.950000
						CHANNELS 3 Zrotation Yrotation Xrotation
						End Site
						{
							OFFSET 0.000000 0.000000 0.000000
						}
					}
				}
			}
		}
	}
	JOINT RHipJoint
	{
		OFFSET 0.000000 0.000000 0.000000
		CHANNELS 3 Zrotation Yrotation Xrotation
		JOINT RightUpLeg
		{
			OFFSET -1.800000 -1.400000 0.085000
			CHANNELS 3 Zrotation Yrotation Xrotation
			JOINT RightLeg
			{
				OFFSET -2.215000 -6.000000 0.000000
				CHANNELS 3 Zrotation Yrotation Xrotation
				JOINT RightFoot
				{
					OFFSET -2.500000 -6.900000 0.000000
					CHANNELS 3 Zrotation Yrotation Xrotation
					JOINT RightToeBase
					{
						OFFSET -0.200000 -0.500000 1.950000
						CHANNELS 3 Zrotation Yrotation Xrotation
						End Site
						{
							OFFSET 0.000000 0.000000 0.000000
						}
					}
				}
			}
		}
	}
	JOINT LowerBack
	{
		OFFSET 0.000000 0.000000 0.000000
		CHANNELS 3 Zrotation Yrotation Xrotation
		JOINT Spine
		{
			OFFSET -0.087000 1.940000 -0.288900
			CHANNELS 3 Zrotation Yrotation Xrotation
			JOINT Spine1
			{
				OFFSET 0.000000 1.950000 0.060000
				CHANNELS 3 Zrotation Yrotation Xrotation
				JOINT Neck
				{
					OFFSET 0.000000 0.000000 0.000000
					CHANNELS 3 Zrotation Yrotation Xrotation
					JOINT Neck1
					{
						OFFSET 0.000000 1.600000 0.340000
						CHANNELS 3 Zrotation Yrotation Xrotation
						JOINT Head
						{
							OFFSET 0.000000 1.667000 -0.240000
							CHANNELS 3 Zrotation Yrotation Xrotation
							End Site
							{
								OFFSET 0.000000 0.000000 0.000000
							}
						}
					}
				}
				JOINT LeftShoulder
				{
					OFFSET 0.000000 0.000000 0.000000
					CHANNELS 3 Zrotation Yrotation Xrotation
					JOINT LeftArm
					{
						OFFSET 2.700000 1.550000 -0.730000
						CHANNELS 3 Zrotation Yrotation Xrotation
						JOINT LeftForeArm
						{
							OFFSET 5.450000 0.000000 0.000000
							CHANNELS 3 Zrotation Yrotation Xrotation
							JOINT LeftHand
							{
								OFFSET 3.450000 0.000000 0.000000
								CHANNELS 3 Zrotation Yrotation Xrotation
								JOINT LeftHandIndex1
								{
									OFFSET 0.750000 0.000000 0.000000
									CHANNELS 3 Zrotation Yrotation Xrotation
									End Site
									{
										OFFSET 0.000000 0.000000 0.000000
									}
								}
							}
						}
					}
				}
				JOINT RightShoulder
				{
					OFFSET 0.000000 0.000000 0.000000
					CHANNELS 3 Zrotation Yrotation Xrotation
					JOINT RightArm
					{
						OFFSET -2.700000 1.550000 -0.730000
						CHANNELS 3 Zrotation Yrotation Xrotation
						JOINT RightForeArm
						{
							OFFSET -5.450000 0.000000 0.000000
							CHANNELS 3 Zrotation Yrotation Xrotation
							JOINT RightHand
							{
								OFFSET -3.450000 0.000000 0.000000
								CHANNELS 3 Zrotation Yrotation Xrotation
								JOINT RightHandIndex1
								{
									OFFSET -0.750000 0.000000 0.000000
									CHANNELS 3 Zrotation Yrotation Xrotation
									End Site
									{
										OFFSET 0.000000 0.000000 0.000000
									}
								}
							}
						}
					}
				}
			}
		}
	}
}
MOTION
Frames: 6
Frame Time: 0.016667
33.081680 16.454680 5.567140 -0.968690 -42.117051 8.155380 -15.214474 11.866309 3.463454 -7.069212 -3.294003 -16.623261 -10.494638 3.714727 1.346015 -0.127726 2.760041 3.673232 -0.075590 -0.163130 -0.147670 18.420458 -11.127854 2.725398 -4.254394 -2.037602 6.037725 4.674750 -5.415764 8.704697 -0.421523 -4.954979 2.726004 -0.034170 0.249620 0.094350 -3.643048 0.393667 -6.964275 2.247730 3.196548 0.130517 1.678914 2.806566 3.538671 0.506617 2.481662 -6.691540 2.522716 -10.609170 32.134656 0.632720 -11.813270 0.707210 -33.025275 -8.234447 4.124752 -51.973290 -3.024521 -2.987677 -8.591935 -17.198191 0.159148 -3.832175 3.068492 -0.060550 0.134410 -0.163900 0.057200 32.729954 9.387915 4.220447 52.251598 3.579187 -5.195749 0.873303 19.921683 -1.003042 2.511176 -1.398961 -0.056340 0.060830 0.115210 0.084390 
33.084960 16.453250 5.569620 -1.033389 -41.504046 8.095830 -15.202077 11.894355 3.472104 -7.056806 -3.290500 -16.633525 -10.528540 3.750678 1.500366 -0.121146 2.771788 3.675540 -0.082340 -0.167730 -0.161120 18.426937 -11.138790 2.707467 -4.217136 -2.042608 5.777387 4.971297 -5.542317 9.397088 -0.410514 -4.967317 2.726626 -0.036050 0.263680 0.093320 -3.674004 0.351893 -6.960929 2.610109 2.893984 0.207670 1.440995 2.508841 3.766276 0.476682 2.358915 -6.770057 2.297083 -10.540100 32.113409 0.633960 -11.890740 1.060360 -32.458952 -8.404095 4.165006 -52.098105 -3.342952 -2.823470 -9.290034 -17.140793 0.258645 -3.840986 3.073829 -0.071290 0.143410 -0.173720 0.063350 32.168584 9.498270 4.242809 52.453142 3.764341 -5.074423 1.516179 19.958246 -0.921371 2.512586 -1.400316 -0.057520 0.063740 0.117150 0.091610 
33.083640 16.455460 5.578730 -1.028523 -41.017579 7.961761 -15.198304 11.912115 3.483903 -7.054279 -3.239192 -16.434830 -10.711860 3.777399 1.386420 -0.092857 2.794681 3.675510 -0.099170 -0.178560 -0.177460 18.424286 -11.165724 2.666749 -4.389372 -1.994397 5.350096 5.536629 -5.787455 10.511599 -0.394273 -5.001746 2.719778 -0.046680 0.276200 0.092330 -3.671664 0.355266 -6.947069 2.642112 2.748452 0.196836 1.386901 2.358687 3.733501 0.511610 2.481775 -6.745940 2.483842 -10.591190 32.326603 0.416760 -11.893840 1.907160 -32.572347 -8.358399 4.202761 -52.415832 -3.285809 -2.955370 -8.845725 -17.402264 0.224671 -3.849084 3.074192 -0.092250 0.156340 -0.183360 0.065560 32.220245 9.338271 4.180935 52.585241 3.653338 -5.214154 1.264355 20.207199 -0.980631 2.518177 -1.406427 -0.053150 0.059560 0.118000 0.102020 
33.083210 16.456630 5.583850 -1.142705 -40.565422 7.784084 -15.186232 11.961062 3.500091 -6.842473 -3.186939 -16.321927 -10.919531 3.849838 1.571696 -0.085530 2.811072 3.661801 -0.092660 -0.168620 -0.158810 18.418190 -11.208754 2.634385 -4.533034 -1.940020 4.824783 6.159729 -6.104143 11.952545 -0.397138 -5.021835 2.707481 -0.047820 0.251790 0.086340 -3.657689 0.341435 -6.966579 2.832147 2.560142 0.461202 1.259674 2.166686 3.664241 0.677847 2.763656 -6.904929 2.886582 -10.594337 33.170369 0.184110 -11.620240 1.819580 -32.669416 -8.670129 4.338207 -52.460769 -3.194922 -2.977074 -9.061242 -17.108971 0.235377 -3.832959 3.060308 -0.077390 0.142340 -0.164250 0.058000 32.001402 9.395850 4.193532 52.840887 3.628010 -5.271519 1.519756 20.218028 -0.935543 2.524946 -1.389485 -0.049610 0.058030 0.108990 0.093150 
33.075810 16.458880 5.593480 -1.178532 -40.108019 7.536189 -15.181120 12.002106 3.511473 -6.661215 -3.086370 -15.967877 -11.162261 3.900255 1.510030 -0.065756 2.844734 3.648119 -0.094530 -0.167670 -0.157790 18.409828 -11.239758 2.600992 -4.704860 -1.874250 4.348667 6.783572 -6.432173 13.312012 -0.398178 -5.063461 2.691497 -0.053820 0.243110 0.080730 -3.637674 0.321531 -6.977453 2.845535 2.382145 0.598733 1.191678 1.989985 3.618912 0.759378 3.007343 -7.046594 3.234526 -10.511753 34.031022 0.388060 -11.577730 2.060770 -32.668384 -8.926302 4.464139 -52.470771 -3.135596 -2.981655 -9.009988 -16.787247 0.218899 -3.822483 3.053105 -0.071520 0.134160 -0.155920 0.056370 31.869507 9.424936 4.201679 52.960808 3.578039 -5.214342 2.021580 19.933395 -0.844483 2.536141 -1.375782 -0.046580 0.057040 0.105320 0.093130 
33.073070 16.460690 5.605800 -1.258146 -39.638891 7.406689 -15.169304 12.038335 3.522519 -6.470939 -3.007266 -15.720877 -11.456371 3.976383 1.585107 -0.043004 2.887329 3.635561 -0.097250 -0.168230 -0.164230 18.407639 -11.277541 2.562184 -4.889295 -1.767820 3.649053 7.439895 -6.796247 14.852699 -0.393795 -5.120981 2.668837 -0.058410 0.244920 0.080560 -3.639802 0.319506 -6.982147 3.008488 2.232430 0.767561 1.097617 1.844173 3.577155 0.790249 3.150780 -7.120215 3.447912 -10.612532 34.362641 0.515790 -11.765700 2.411280 -32.664461 -9.129570 4.519300 -52.485744 -3.218752 -2.929988 -8.955846 -16.414748 0.202558 -3.821262 3.056641 -0.077470 0.134200 -0.156170 0.060150 31.793939 9.475224 4.207575 52.909511 3.534016 -5.100380 2.565854 19.519769 -0.755764 2.547004 -1.375038 -0.041370 0.053610 0.102590 0.099390 
